<svg width="70" height="56" viewBox="0 0 70 56" fill="none" xmlns="http://www.w3.org/2000/svg">
<path d="M4.66667 0C2.09986 0 0 2.10092 0 4.66667V9.33333C0 11.8991 2.09986 14 4.66667 14H53.6667C56.2322 14 58.3333 11.8991 58.3333 9.33333V4.66667C58.3333 2.10092 56.2324 0 53.6667 0H4.66667V0ZM4.66667 2.33333H53.6667C54.9792 2.33333 56 3.35412 56 4.66667V9.33333C56 10.6459 54.9792 11.6667 53.6667 11.6667H4.66667C3.35306 11.6667 2.33333 10.6459 2.33333 9.33333V4.66667C2.33333 3.3543 3.35306 2.33333 4.66667 2.33333ZM4.66667 43.1667V47.8333C4.66667 48.444 5.22157 49 5.83333 49H21.7303L19.0301 51.6249C17.9101 52.7847 19.6841 54.3228 20.6365 53.3064L25.3032 48.6397C25.7532 48.2023 25.7532 47.3911 25.3032 46.9582L20.6365 42.2916C19.7092 41.3665 17.9763 42.9159 19.0301 43.9731L21.728 46.6665H7V43.1665C7 41.615 4.66667 41.6627 4.66667 43.1667ZM37.3333 42C34.7676 42 32.6667 44.1009 32.6667 46.6667V51.3333C32.6667 53.8991 34.7676 56 37.3333 56H65.3333C67.8991 56 70 53.8991 70 51.3333V46.6667C70 44.1009 67.8991 42 65.3333 42H37.3333ZM37.3333 44.3333H65.3333C66.6459 44.3333 67.6667 45.3541 67.6667 46.6667V51.3333C67.6667 52.6459 66.6459 53.6667 65.3333 53.6667H37.3333C36.0208 53.6667 35 52.6459 35 51.3333V46.6667C35 45.3543 36.0208 44.3333 37.3333 44.3333ZM4.66667 21C2.09986 21 0 23.1009 0 25.6667V30.3333C0 32.8991 2.09986 35 4.66667 35H53.6667C56.2322 35 58.3333 32.8991 58.3333 30.3333V25.6667C58.3333 23.1009 56.2324 21 53.6667 21H4.66667V21ZM4.66667 23.3333H53.6667C54.9792 23.3333 56 24.3541 56 25.6667V30.3333C56 31.6459 54.9792 32.6667 53.6667 32.6667H4.66667C3.35306 32.6667 2.33333 31.6459 2.33333 30.3333V25.6667C2.33333 24.3541 3.35306 23.3333 4.66667 23.3333V23.3333Z" fill="white"/>
</svg>
