<svg width="18" height="18" viewBox="0 0 18 18" fill="none" xmlns="http://www.w3.org/2000/svg">
<path d="M9 16.8398C4.65117 16.8398 1.125 13.3137 1.125 8.96484C1.125 4.61602 4.65117 1.08984 9 1.08984C13.3488 1.08984 16.875 4.61602 16.875 8.96484C16.875 13.3137 13.3488 16.8398 9 16.8398ZM12.8074 6.31055C12.8602 6.25781 12.8883 6.1875 12.8883 6.11367C12.8883 6.03984 12.8602 5.96602 12.8074 5.9168L12.048 5.15391C11.9918 5.09766 11.9215 5.07305 11.8512 5.07305C11.7809 5.07305 11.707 5.10117 11.6543 5.15391L9 7.81172L6.34922 5.15039C6.29648 5.09414 6.22266 5.06953 6.15234 5.06953C6.08203 5.06953 6.0082 5.09766 5.95547 5.15039L5.19609 5.91328C5.14336 5.96602 5.11523 6.03633 5.11523 6.11016C5.11523 6.18398 5.14336 6.25781 5.19609 6.30703L7.85742 8.97891L5.18906 11.6156C5.08008 11.7246 5.08008 11.9039 5.18906 12.0129L5.94844 12.7758C6.00117 12.8285 6.07148 12.8566 6.14531 12.8566C6.21914 12.8566 6.28945 12.8285 6.34219 12.7758L9.00352 10.1496L11.6648 12.7758C11.7176 12.8285 11.7879 12.8566 11.8617 12.8566C11.9355 12.8566 12.0059 12.8285 12.0586 12.7758L12.818 12.0129C12.927 11.9039 12.927 11.7246 12.818 11.6156L10.1496 8.97891L12.8074 6.31055Z" fill="#5090F6"/>
</svg>
