<svg width="220" height="51" viewBox="0 0 220 51" fill="none" xmlns="http://www.w3.org/2000/svg">
<path d="M2.44875 9.91744L21.8378 24.5593C22.6961 25.2075 23.1977 26.2232 23.1905 27.2989L23.0929 41.9349C23.0855 43.0484 23.9861 43.9551 25.0997 43.9551L25.1512 27.7976C25.1573 25.8683 24.2536 24.049 22.7125 22.8882L1.34681 6.79528C5.52738 2.86272 11.925 2.49089 16.533 5.91267L24.1011 11.5325C25.8909 12.8616 28.3423 12.8527 30.1223 11.5107L34.9559 7.86661L40.8719 3.81995C42.5768 2.65375 44.856 2.79505 46.4038 4.16288L36.7619 11.4479L30.7796 15.9678C28.6105 17.6068 25.6204 17.6188 23.4381 15.9974L14.0191 8.99916L12.5743 7.90821C11.6878 7.23878 10.4404 7.33932 9.67257 8.1421L23.4148 18.509C25.6056 20.1618 28.6287 20.1546 30.8117 18.4913L50.2606 3.67313L52.2448 6.00748C54.5758 8.74981 54.1763 12.8768 51.3626 15.121L37.2966 25.8405C35.7824 26.9944 34.8913 28.787 34.8854 30.6907L34.8456 43.5878C34.8389 45.7536 33.0813 47.5058 30.9155 47.5058L30.9707 27.7486C30.9745 26.3872 31.6103 25.1047 32.6915 24.2775L48.7339 12.0038C49.5779 11.3581 49.7405 10.1513 49.0975 9.30525L31.4765 22.7231C29.9647 23.8742 29.0732 25.6621 29.0635 27.5622L28.9565 48.4241V50.3218H26.9975C22.6768 50.3218 19.181 46.8065 19.205 42.486L19.2227 39.3025L19.2696 30.3989C19.2786 28.6811 18.4804 27.0587 17.1139 26.0176L3.11802 15.354C1.40805 14.0512 1.10582 11.5961 2.44875 9.91744Z" fill="url(#paint0_linear_8_31)"/>
<path d="M196.305 20.1372H211.583C217.949 20.1372 220 22.1884 220 27.3165V36.7238C220 39.0226 219.434 39.553 217.383 39.553H200.549C196.376 39.553 195.103 38.0323 195.103 34.5311V32.8335C195.103 29.8628 196.376 28.2006 200.549 28.2006H214.943V27.5287C214.943 25.2653 214.165 24.3811 211.088 24.3811H196.305C195.881 24.3811 195.668 24.2043 195.668 23.7445V20.7738C195.668 20.3494 195.881 20.1372 196.305 20.1372ZM213.917 35.6628C214.66 35.6628 214.943 35.3445 214.943 34.4604V31.3482H201.999C200.549 31.3482 200.018 31.9494 200.018 33.0811V33.8238C200.018 35.0969 200.549 35.6628 201.999 35.6628H213.917Z" fill="black"/>
<path d="M182.502 20.1372H192.405C192.829 20.1372 193.041 20.3494 193.041 20.7738V23.7445C193.041 24.2043 192.829 24.3811 192.405 24.3811H182.997C179.956 24.3811 179.143 25.3006 179.143 28.2713V38.775C179.143 39.3055 178.895 39.553 178.364 39.553H174.899C174.368 39.553 174.085 39.3055 174.085 38.775V27.3165C174.085 22.1884 176.136 20.1372 182.502 20.1372Z" fill="black"/>
<path d="M155.863 20.1375H159.223V15.4692C159.223 14.9387 159.506 14.6912 160.001 14.6912H163.502C163.998 14.6912 164.28 14.9387 164.28 15.4692V20.1375H170.469C170.929 20.1375 171.106 20.3497 171.106 20.7741V23.6741C171.106 24.0985 170.929 24.3107 170.469 24.3107H164.28V32.5155C164.28 34.4607 164.917 35.3802 167.251 35.3802H170.682C171.141 35.3802 171.318 35.5924 171.318 36.0168V38.9168C171.318 39.3411 171.141 39.5533 170.682 39.5533H166.402C160.744 39.5533 159.223 37.5375 159.223 32.5155V24.3107H155.863C155.439 24.3107 155.227 24.0985 155.227 23.6741V20.7741C155.227 20.3497 155.439 20.1375 155.863 20.1375Z" fill="black"/>
<path d="M133.909 20.1372H144.059C150.425 20.1372 152.476 22.1884 152.476 27.3165V38.775C152.476 39.3055 152.228 39.553 151.698 39.553H148.232C147.701 39.553 147.454 39.3055 147.454 38.775V28.5189C147.454 25.5482 146.853 24.6287 143.811 24.6287H134.404C131.362 24.6287 130.549 25.5482 130.549 28.5189V38.775C130.549 39.3055 130.301 39.553 129.771 39.553H126.305C125.775 39.553 125.492 39.3055 125.492 38.775V27.3165C125.492 22.1884 127.543 20.1372 133.909 20.1372Z" fill="black"/>
<path d="M98.1163 20.1372H113.394C119.76 20.1372 121.811 22.1884 121.811 27.3165V36.7238C121.811 39.0226 121.246 39.553 119.194 39.553H102.36C98.187 39.553 96.9138 38.0323 96.9138 34.5311V32.8335C96.9138 29.8628 98.187 28.2006 102.36 28.2006H116.754V27.5287C116.754 25.2653 115.976 24.3811 112.899 24.3811H98.1163C97.6919 24.3811 97.4797 24.2043 97.4797 23.7445V20.7738C97.4797 20.3494 97.6919 20.1372 98.1163 20.1372ZM115.728 35.6628C116.471 35.6628 116.754 35.3445 116.754 34.4604V31.3482H103.81C102.36 31.3482 101.83 31.9494 101.83 33.0811V33.8238C101.83 35.0969 102.36 35.6628 103.81 35.6628H115.728Z" fill="black"/>
<path d="M67.0946 14.7969H71.8337C72.2581 14.7969 72.4703 14.903 72.6824 15.2213L82.1251 27.9883L91.6385 15.2213C91.8507 14.903 92.0629 14.7969 92.4873 14.7969H97.1202C97.5093 14.7969 97.6861 15.1859 97.4385 15.5042L84.7422 31.9847V38.7749C84.7422 39.3054 84.4946 39.553 83.9641 39.553H80.1446C79.6141 39.553 79.3312 39.3054 79.3312 38.7749V31.9847L66.7764 15.5042C66.5288 15.1859 66.6703 14.7969 67.0946 14.7969Z" fill="black"/>
<path fill-rule="evenodd" clip-rule="evenodd" d="M60.9447 47.4642L60.9447 2.26025L62.1343 2.26025L62.1343 47.4642L60.9447 47.4642Z" fill="#CCCCCC"/>
<defs>
<linearGradient id="paint0_linear_8_31" x1="34.6104" y1="-7.11355" x2="35.1661" y2="48.3402" gradientUnits="userSpaceOnUse">
<stop stop-color="#75E3A6"/>
<stop offset="1" stop-color="#0278FE"/>
</linearGradient>
</defs>
</svg>
