<svg width="904" height="202" viewBox="0 0 904 202" fill="none" xmlns="http://www.w3.org/2000/svg">
<g clip-path="url(#clip0_10_69)">
<path d="M4.6983 29.3551L87.3667 91.783C91.0262 94.5468 93.1648 98.8774 93.1341 103.464L92.718 165.867C92.6864 170.614 96.5263 174.48 101.274 174.48L101.494 105.59C101.52 97.3642 97.6668 89.6073 91.0961 84.658L0 16.0433C17.8245 -0.723832 45.1018 -2.30919 64.7488 12.2801L97.0166 36.2412C104.648 41.908 115.1 41.8701 122.689 36.1482L143.298 20.6111L168.522 3.35747C175.791 -1.61481 185.508 -1.01235 192.108 4.81961L150.998 35.8805L125.491 55.1518C116.243 62.1399 103.494 62.1911 94.1898 55.278L54.0304 25.4399L47.8702 20.7884C44.0905 17.9342 38.772 18.3629 35.4982 21.7857L94.0905 65.9866C103.431 73.0336 116.321 73.0029 125.628 65.9112L208.552 2.73148L217.012 12.6844C226.95 24.3767 225.247 41.9728 213.25 51.5413L153.278 97.2457C146.822 102.165 143.022 109.809 142.997 117.925L142.828 172.914C142.799 182.148 135.305 189.619 126.071 189.619L126.306 105.381C126.322 99.5766 129.033 94.1084 133.643 90.5815L202.043 38.2506C205.641 35.4976 206.334 30.3522 203.593 26.7449L128.463 83.9541C122.017 88.862 118.216 96.485 118.175 104.586L117.718 193.534V201.626H109.366C90.9439 201.626 76.039 186.638 76.1413 168.216L76.2168 154.643L76.4167 116.681C76.4551 109.357 73.0518 102.44 67.2255 98.0007L7.55184 52.5348C0.261107 46.9801 -1.0275 36.5123 4.6983 29.3551Z" fill="url(#paint0_linear_10_69)"/>
<path d="M809.26 73.1962H869.772C894.987 73.1962 903.11 81.3206 903.11 101.632V138.892C903.11 147.997 900.868 150.098 892.745 150.098H826.069C809.541 150.098 804.499 144.075 804.499 130.207V123.484C804.499 111.717 809.541 105.134 826.069 105.134H883.081V102.472C883.081 93.5075 879.999 90.0054 867.812 90.0054H809.26C807.58 90.0054 806.737 89.3051 806.737 87.484V75.7177C806.737 74.0367 807.58 73.1962 809.26 73.1962ZM879.017 134.69C881.96 134.69 883.081 133.429 883.081 129.927V117.601H831.812C826.069 117.601 823.966 119.982 823.966 124.464V127.406C823.966 132.448 826.069 134.69 831.812 134.69H879.017Z" fill="black"/>
<path d="M754.589 73.1962H793.812C795.492 73.1962 796.331 74.0367 796.331 75.7177V87.484C796.331 89.3051 795.492 90.0054 793.812 90.0054H756.549C744.504 90.0054 741.284 93.6473 741.284 105.414V147.017C741.284 149.118 740.302 150.098 738.199 150.098H724.475C722.371 150.098 721.251 149.118 721.251 147.017V101.632C721.251 81.3206 729.374 73.1962 754.589 73.1962Z" fill="black"/>
<path d="M649.078 73.1973H662.386V54.7072C662.386 52.606 663.507 51.6257 665.467 51.6257H679.334C681.298 51.6257 682.415 52.606 682.415 54.7072V73.1973H706.929C708.751 73.1973 709.452 74.0378 709.452 75.7187V87.205C709.452 88.886 708.751 89.7264 706.929 89.7264H682.415V122.224C682.415 129.928 684.938 133.57 694.183 133.57H707.772C709.59 133.57 710.291 134.411 710.291 136.092V147.578C710.291 149.259 709.59 150.099 707.772 150.099H690.82C668.41 150.099 662.386 142.115 662.386 122.224V89.7264H649.078C647.398 89.7264 646.558 88.886 646.558 87.205V75.7187C646.558 74.0378 647.398 73.1973 649.078 73.1973Z" fill="black"/>
<path d="M562.122 73.1962H602.324C627.539 73.1962 635.662 81.3206 635.662 101.632V147.017C635.662 149.118 634.68 150.098 632.581 150.098H618.853C616.749 150.098 615.771 149.118 615.771 147.017V106.394C615.771 94.628 613.391 90.9861 601.342 90.9861H564.083C552.034 90.9861 548.814 94.628 548.814 106.394V147.017C548.814 149.118 547.832 150.098 545.732 150.098H532.004C529.905 150.098 528.784 149.118 528.784 147.017V101.632C528.784 81.3206 536.908 73.1962 562.122 73.1962Z" fill="black"/>
<path d="M420.355 73.1962H480.867C506.081 73.1962 514.205 81.3206 514.205 101.632V138.892C514.205 147.997 511.967 150.098 503.839 150.098H437.164C420.635 150.098 415.592 144.075 415.592 130.207V123.484C415.592 111.717 420.635 105.134 437.164 105.134H494.175V102.472C494.175 93.5075 491.094 90.0054 478.906 90.0054H420.355C418.674 90.0054 417.834 89.3051 417.834 87.484V75.7177C417.834 74.0367 418.674 73.1962 420.355 73.1962ZM490.111 134.69C493.054 134.69 494.175 133.429 494.175 129.927V117.601H442.907C437.164 117.601 435.064 119.982 435.064 124.464V127.406C435.064 132.448 437.164 134.69 442.907 134.69H490.111Z" fill="black"/>
<path d="M297.485 52.0444H316.256C317.936 52.0444 318.777 52.4646 319.617 53.7253L357.018 104.293L394.698 53.7253C395.539 52.4646 396.379 52.0444 398.06 52.0444H416.41C417.951 52.0444 418.651 53.5851 417.671 54.8458L367.383 120.122V147.016C367.383 149.117 366.403 150.098 364.301 150.098H349.173C347.072 150.098 345.952 149.117 345.952 147.016V120.122L296.225 54.8458C295.244 53.5851 295.804 52.0444 297.485 52.0444Z" fill="black"/>
<path fill-rule="evenodd" clip-rule="evenodd" d="M257.742 201.669V22.6257H262.454V201.669H257.742Z" fill="#CCCCCC"/>
</g>
<defs>
<linearGradient id="paint0_linear_10_69" x1="141.825" y1="-43.2593" x2="144.194" y2="193.177" gradientUnits="userSpaceOnUse">
<stop stop-color="#75E3A6"/>
<stop offset="1" stop-color="#0278FE"/>
</linearGradient>
<clipPath id="clip0_10_69">
<rect width="903.11" height="201.669" fill="white"/>
</clipPath>
</defs>
</svg>
