<svg width="91" height="91" viewBox="0 0 91 91" fill="none" xmlns="http://www.w3.org/2000/svg">
<path d="M8.73138 14.1586L36.3199 34.9923C37.5412 35.9147 38.2549 37.36 38.2447 38.8904L38.1059 59.716C38.0953 61.3004 39.3768 62.5905 40.9612 62.5905L41.0345 39.6002C41.0432 36.8549 39.7573 34.2662 37.5645 32.6146L7.16344 9.71608C13.1119 4.12046 22.2151 3.59139 28.7718 8.46022L39.5404 16.4567C42.087 18.3478 45.5751 18.3351 48.1079 16.4256L54.9856 11.2405L63.4033 5.48249C65.8292 3.82313 69.0724 4.02417 71.2747 5.97045L57.5553 16.3363L49.0431 22.7676C45.9567 25.0996 41.7021 25.1167 38.597 22.8097L25.1947 12.852L23.139 11.2996C21.8775 10.3471 20.1027 10.4902 19.0101 11.6324L38.5637 26.3834C41.6811 28.7352 45.9827 28.7249 49.0888 26.3583L76.7625 5.27358L79.5858 8.59512C82.9026 12.4972 82.3341 18.3694 78.3305 21.5627L58.3161 36.8153C56.1616 38.4572 54.8936 41.0079 54.8852 43.7167L54.8286 62.0679C54.8191 65.1496 52.3182 67.6427 49.2365 67.6427L49.315 39.5303C49.3204 37.5932 50.2251 35.7684 51.7636 34.5914L74.5902 17.1272C75.7911 16.2084 76.0224 14.4913 75.1075 13.2875L50.0347 32.3796C47.8837 34.0176 46.6151 36.5615 46.6013 39.2652L46.449 68.9493V71.6497H43.6616C37.5138 71.6497 32.5396 66.6478 32.5737 60.5001L32.5989 55.9703L32.6656 43.3015C32.6784 40.8572 31.5427 38.5487 29.5984 37.0673L9.68368 21.8942C7.25058 20.0404 6.82053 16.5471 8.73138 14.1586Z" fill="url(#paint0_linear_8_29)"/>
<path d="M76.1796 79.5574H85.1464C88.8826 79.5574 90.0865 80.7613 90.0865 83.7709V89.2922C90.0865 90.6414 89.7544 90.9527 88.5505 90.9527H78.6704C76.2211 90.9527 75.4739 90.0602 75.4739 88.0053V87.009C75.4739 85.2654 76.2211 84.2899 78.6704 84.2899H87.1183V83.8955C87.1183 82.5671 86.6616 82.0482 84.8558 82.0482H76.1796C75.9305 82.0482 75.806 81.9444 75.806 81.6745V79.931C75.806 79.6819 75.9305 79.5574 76.1796 79.5574ZM86.5163 88.6695C86.9522 88.6695 87.1183 88.4827 87.1183 87.9638V86.1372H79.5214C78.6704 86.1372 78.359 86.4901 78.359 87.1543V87.5902C78.359 88.3374 78.6704 88.6695 79.5214 88.6695H86.5163Z" fill="black"/>
<path d="M68.0785 79.5574H73.8903C74.1394 79.5574 74.2639 79.6819 74.2639 79.931V81.6745C74.2639 81.9444 74.1394 82.0482 73.8903 82.0482H68.3691C66.584 82.0482 66.1066 82.5878 66.1066 84.3314V90.4961C66.1066 90.8074 65.9613 90.9527 65.65 90.9527H63.6158C63.3045 90.9527 63.1384 90.8074 63.1384 90.4961V83.7709C63.1384 80.7613 64.3423 79.5574 68.0785 79.5574Z" fill="black"/>
<path d="M52.4439 79.5576H54.4158V76.8177C54.4158 76.5064 54.5819 76.3611 54.8724 76.3611H56.9273C57.2179 76.3611 57.384 76.5064 57.384 76.8177V79.5576H61.0164C61.2862 79.5576 61.39 79.6821 61.39 79.9312V81.6332C61.39 81.8823 61.2862 82.0069 61.0164 82.0069H57.384V86.8224C57.384 87.964 57.7576 88.5037 59.1275 88.5037H61.1409C61.4107 88.5037 61.5145 88.6282 61.5145 88.8773V90.5793C61.5145 90.8284 61.4107 90.9529 61.1409 90.9529H58.6294C55.3083 90.9529 54.4158 89.7698 54.4158 86.8224V82.0069H52.4439C52.1949 82.0069 52.0703 81.8823 52.0703 81.6332V79.9312C52.0703 79.6821 52.1949 79.5576 52.4439 79.5576Z" fill="black"/>
<path d="M39.5587 79.5574H45.5158C49.252 79.5574 50.4559 80.7613 50.4559 83.7709V90.4961C50.4559 90.8074 50.3106 90.9527 49.9992 90.9527H47.9651C47.6538 90.9527 47.5085 90.8074 47.5085 90.4961V84.4767C47.5085 82.7331 47.1556 82.1935 45.3705 82.1935H39.8493C38.0642 82.1935 37.5868 82.7331 37.5868 84.4767V90.4961C37.5868 90.8074 37.4415 90.9527 37.1302 90.9527H35.096C34.7847 90.9527 34.6187 90.8074 34.6187 90.4961V83.7709C34.6187 80.7613 35.8225 79.5574 39.5587 79.5574Z" fill="black"/>
<path d="M18.5517 79.5574H27.5185C31.2547 79.5574 32.4585 80.7613 32.4585 83.7709V89.2922C32.4585 90.6414 32.1264 90.9527 30.9226 90.9527H21.0425C18.5932 90.9527 17.8459 90.0602 17.8459 88.0053V87.009C17.8459 85.2654 18.5932 84.2899 21.0425 84.2899H29.4904V83.8955C29.4904 82.5671 29.0337 82.0482 27.2279 82.0482H18.5517C18.3026 82.0482 18.1781 81.9444 18.1781 81.6745V79.931C18.1781 79.6819 18.3026 79.5574 18.5517 79.5574ZM28.8884 88.6695C29.3243 88.6695 29.4904 88.4827 29.4904 87.9638V86.1372H21.8935C21.0425 86.1372 20.7311 86.4901 20.7311 87.1543V87.5902C20.7311 88.3374 21.0425 88.6695 21.8935 88.6695H28.8884Z" fill="black"/>
<path d="M0.344729 76.4231H3.1261C3.37518 76.4231 3.49972 76.4854 3.62426 76.6722L9.16626 84.1653L14.7498 76.6722C14.8743 76.4854 14.9988 76.4231 15.2479 76.4231H17.967C18.1953 76.4231 18.2991 76.6514 18.1538 76.8382L10.7022 86.5108V90.496C10.7022 90.8074 10.5569 90.9527 10.2456 90.9527H8.00389C7.69254 90.9527 7.52649 90.8074 7.52649 90.496V86.5108L0.157921 76.8382C0.0126248 76.6514 0.0956509 76.4231 0.344729 76.4231Z" fill="black"/>
<defs>
<linearGradient id="paint0_linear_8_29" x1="54.494" y1="-10.0747" x2="55.2846" y2="68.8301" gradientUnits="userSpaceOnUse">
<stop stop-color="#75E3A6"/>
<stop offset="1" stop-color="#0278FE"/>
</linearGradient>
</defs>
</svg>
