<svg width="141" height="48" viewBox="0 0 141 48" fill="none" xmlns="http://www.w3.org/2000/svg">
<g clip-path="url(#clip0_4_453)">
<path d="M9.61536 10.7352C9.61536 6.99618 12.6464 3.96509 16.3855 3.96509H124.708C128.447 3.96509 131.478 6.99618 131.478 10.7352V27.7573C131.478 31.4963 128.447 34.5274 124.708 34.5274H16.3855C12.6464 34.5274 9.61536 31.4963 9.61536 27.7573V10.7352Z" fill="url(#paint0_linear_4_453)"/>
<path fill-rule="evenodd" clip-rule="evenodd" d="M121.032 7.25398H19.6738C16.0416 7.25398 13.0971 10.1985 13.0971 13.8307V26.4038C13.0971 30.036 16.0416 32.9805 19.6738 32.9805H121.032C124.665 32.9805 127.609 30.036 127.609 26.4038V13.8307C127.609 10.1985 124.665 7.25398 121.032 7.25398ZM19.6738 7.06055C15.9348 7.06055 12.9037 10.0916 12.9037 13.8307V26.4038C12.9037 30.1428 15.9348 33.1739 19.6738 33.1739H121.032C124.771 33.1739 127.803 30.1428 127.803 26.4038V13.8307C127.803 10.0916 124.771 7.06055 121.032 7.06055H19.6738Z" fill="url(#paint1_linear_4_453)"/>
<path fill-rule="evenodd" clip-rule="evenodd" d="M117.744 10.3487H23.1557C19.5235 10.3487 16.579 13.2932 16.579 16.9254V26.4036C16.579 30.0358 19.5235 32.9803 23.1557 32.9803H117.744C121.376 32.9803 124.321 30.0358 124.321 26.4036V16.9254C124.321 13.2932 121.376 10.3487 117.744 10.3487ZM23.1557 10.1553C19.4167 10.1553 16.3856 13.1864 16.3856 16.9254V26.4036C16.3856 30.1426 19.4166 33.1737 23.1557 33.1737H117.744C121.483 33.1737 124.514 30.1426 124.514 26.4036V16.9254C124.514 13.1864 121.483 10.1553 117.744 10.1553H23.1557Z" fill="url(#paint2_linear_4_453)" fill-opacity="0.5"/>
<path fill-rule="evenodd" clip-rule="evenodd" d="M5.26318 14.4107C5.26318 6.45189 11.7151 0 19.6739 0H120.646C128.604 0 135.056 6.45189 135.056 14.4107V24.2758C135.056 31.2731 129.384 36.9456 122.386 36.9456V32.1098C126.713 32.1098 130.22 28.6024 130.22 24.2758V14.4107C130.22 9.12263 125.934 4.83581 120.646 4.83581H19.6739C14.3858 4.83581 10.099 9.12264 10.099 14.4107V22.5349C10.099 27.8229 14.3858 32.1098 19.6739 32.1098H22.0128V36.9456H19.6739C11.7151 36.9456 5.26318 30.4937 5.26318 22.5349V14.4107Z" fill="url(#paint3_linear_4_453)"/>
<path d="M137.668 17.3123C137.668 16.244 138.534 15.3779 139.602 15.3779H140.763V22.9218C140.763 23.9901 139.897 24.8561 138.828 24.8561H137.668V17.3123Z" fill="url(#paint4_linear_4_453)"/>
<path fill-rule="evenodd" clip-rule="evenodd" d="M29.3154 30.8082C31.4932 30.8082 33.2586 29.0428 33.2586 26.865C33.2586 24.6873 31.4932 22.9219 29.3154 22.9219C27.1377 22.9219 25.3723 24.6873 25.3723 26.865C25.3723 29.0428 27.1377 30.8082 29.3154 30.8082ZM26.5245 39.5504V47.8746H32.2898V39.5504C35.6694 38.8893 42.4287 35.4651 42.4287 27.0566V23.2887H36.8622V24.8752C36.8622 24.9678 36.863 25.0703 36.8637 25.1819C36.8813 27.6991 36.9308 34.7908 29.5065 34.7908C23.3039 34.7908 21.7532 29.6347 21.7532 27.0566V23.2887H16.3856V25.8667C16.3856 31.4195 19.1688 38.5588 26.5245 39.5504Z" fill="url(#paint5_linear_4_453)"/>
<path d="M47.7555 46.7085C44.1468 46.7085 41.8999 44.5978 41.8999 41.2614C41.8999 38.1294 44.1128 36.1889 48.1981 35.8825L52.9642 35.508V35.2356C52.9642 33.5675 51.9429 32.6823 50.0705 32.6823C47.8576 32.6823 46.6661 33.5334 46.6661 35.0654H42.3084C42.3084 31.2184 45.4745 28.6992 50.3428 28.6992C55.2792 28.6992 58.0708 31.4567 58.0708 36.325V46.2659H53.4409L53.1004 44.019C52.5557 45.585 50.3088 46.7085 47.7555 46.7085ZM49.5939 42.8275C51.6025 42.8275 52.9983 41.8402 52.9983 39.8997V38.9805L50.3428 39.2188C48.0619 39.4231 47.2448 39.9337 47.2448 41.0231C47.2448 42.2487 47.9938 42.8275 49.5939 42.8275Z" fill="url(#paint6_linear_4_453)"/>
<path d="M67.0739 46.2659H61.8311V29.2439H66.7675L67.108 31.0142C68.1633 29.5503 70.1038 28.6992 72.3167 28.6992C76.368 28.6992 78.717 31.2865 78.717 35.7463V46.2659H73.4742V37.0059C73.4742 34.8612 72.2827 33.4653 70.4783 33.4653C68.4016 33.4653 67.0739 34.8271 67.0739 36.9378V46.2659Z" fill="url(#paint7_linear_4_453)"/>
<path d="M89.3539 46.2659H84.1111V33.6015H80.8769V29.2439H84.1111V23.967H89.3539V29.2439H92.5881V33.6015H89.3539V46.2659Z" fill="url(#paint8_linear_4_453)"/>
<path d="M106.655 29.2439V34.1803H104.987C101.991 34.1803 100.187 35.508 100.187 38.8784V46.2659H94.9443V29.2779H99.8807L100.153 31.7972C100.868 30.129 102.366 29.0056 104.647 29.0056C105.26 29.0056 105.941 29.0737 106.655 29.2439Z" fill="url(#paint9_linear_4_453)"/>
<path d="M113.782 46.7085C110.174 46.7085 107.927 44.5978 107.927 41.2614C107.927 38.1294 110.14 36.1889 114.225 35.8825L118.991 35.508V35.2356C118.991 33.5675 117.97 32.6823 116.097 32.6823C113.885 32.6823 112.693 33.5334 112.693 35.0654H108.335C108.335 31.2184 111.501 28.6992 116.37 28.6992C121.306 28.6992 124.098 31.4567 124.098 36.325V46.2659H119.468L119.127 44.019C118.583 45.585 116.336 46.7085 113.782 46.7085ZM115.621 42.8275C117.629 42.8275 119.025 41.8402 119.025 39.8997V38.9805L116.37 39.2188C114.089 39.4231 113.272 39.9337 113.272 41.0231C113.272 42.2487 114.021 42.8275 115.621 42.8275Z" fill="url(#paint10_linear_4_453)"/>
<path d="M0.137207 17.3123C0.137207 16.244 1.00323 15.3779 2.07153 15.3779H3.23212V22.9218C3.23212 23.9901 2.3661 24.8561 1.2978 24.8561H0.137207V17.3123Z" fill="url(#paint11_linear_4_453)"/>
<path d="M0.137207 17.3123C0.137207 16.244 1.00323 15.3779 2.07153 15.3779H3.23212V22.9218C3.23212 23.9901 2.3661 24.8561 1.2978 24.8561H0.137207V17.3123Z" fill="url(#paint12_linear_4_453)"/>
</g>
<defs>
<linearGradient id="paint0_linear_4_453" x1="70.5465" y1="3.96509" x2="70.5465" y2="34.5274" gradientUnits="userSpaceOnUse">
<stop stop-color="#535252" stop-opacity="0.74"/>
<stop offset="1" stop-color="#4A4A4A" stop-opacity="0"/>
</linearGradient>
<linearGradient id="paint1_linear_4_453" x1="70.3531" y1="7.06055" x2="70.3531" y2="33.1739" gradientUnits="userSpaceOnUse">
<stop stop-color="#D9D9D9" stop-opacity="0.34"/>
<stop offset="1" stop-color="#D9D9D9" stop-opacity="0.14"/>
</linearGradient>
<linearGradient id="paint2_linear_4_453" x1="70.4499" y1="10.1553" x2="70.4499" y2="33.1737" gradientUnits="userSpaceOnUse">
<stop stop-color="#D9D9D9" stop-opacity="0.34"/>
<stop offset="1" stop-color="#D9D9D9" stop-opacity="0.14"/>
</linearGradient>
<linearGradient id="paint3_linear_4_453" x1="84.7639" y1="-5.22267" x2="84.8943" y2="35.4944" gradientUnits="userSpaceOnUse">
<stop stop-color="#75E3A6"/>
<stop offset="1" stop-color="#0278FE"/>
</linearGradient>
<linearGradient id="paint4_linear_4_453" x1="139.563" y1="14.0381" x2="139.923" y2="24.4715" gradientUnits="userSpaceOnUse">
<stop stop-color="#75E3A6"/>
<stop offset="1" stop-color="#0278FE"/>
</linearGradient>
<linearGradient id="paint5_linear_4_453" x1="16.7994" y1="27.5139" x2="42.6042" y2="29.571" gradientUnits="userSpaceOnUse">
<stop stop-color="white"/>
<stop offset="1" stop-color="#E1E1E1"/>
</linearGradient>
<linearGradient id="paint6_linear_4_453" x1="42.0047" y1="20.2262" x2="125.487" y2="33.559" gradientUnits="userSpaceOnUse">
<stop stop-color="white"/>
<stop offset="1" stop-color="#E1E1E1"/>
</linearGradient>
<linearGradient id="paint7_linear_4_453" x1="42.0047" y1="20.2262" x2="125.487" y2="33.559" gradientUnits="userSpaceOnUse">
<stop stop-color="white"/>
<stop offset="1" stop-color="#E1E1E1"/>
</linearGradient>
<linearGradient id="paint8_linear_4_453" x1="42.0047" y1="20.2262" x2="125.487" y2="33.559" gradientUnits="userSpaceOnUse">
<stop stop-color="white"/>
<stop offset="1" stop-color="#E1E1E1"/>
</linearGradient>
<linearGradient id="paint9_linear_4_453" x1="42.0047" y1="20.2262" x2="125.487" y2="33.559" gradientUnits="userSpaceOnUse">
<stop stop-color="white"/>
<stop offset="1" stop-color="#E1E1E1"/>
</linearGradient>
<linearGradient id="paint10_linear_4_453" x1="42.0047" y1="20.2262" x2="125.487" y2="33.559" gradientUnits="userSpaceOnUse">
<stop stop-color="white"/>
<stop offset="1" stop-color="#E1E1E1"/>
</linearGradient>
<linearGradient id="paint11_linear_4_453" x1="2.0329" y1="14.0381" x2="2.39263" y2="24.4715" gradientUnits="userSpaceOnUse">
<stop stop-color="#75E3A6"/>
<stop offset="1" stop-color="#0278FE"/>
</linearGradient>
<linearGradient id="paint12_linear_4_453" x1="7.77778" y1="24.599" x2="7.77778" y2="12.96" gradientUnits="userSpaceOnUse">
<stop stop-color="#710CFD"/>
<stop offset="1" stop-color="#04EBF1"/>
</linearGradient>
<clipPath id="clip0_4_453">
<rect width="141" height="48" fill="white"/>
</clipPath>
</defs>
</svg>
