<?xml version="1.0" standalone="no"?>
<!DOCTYPE svg PUBLIC "-//W3C//DTD SVG 1.1//EN" "http://www.w3.org/Graphics/SVG/1.1/DTD/svg11.dtd" >
<svg xmlns="http://www.w3.org/2000/svg">
<metadata>Generated by IcoMoon</metadata>
<defs>
<font id="icomoon" horiz-adv-x="1024">
<font-face units-per-em="1024" ascent="896" descent="-128" />
<missing-glyph horiz-adv-x="1024" />
<glyph unicode="&#x20;" d="" />
<glyph unicode="&#xe900;" glyph-name="double-arrow-top" d="M512 746.667l298.667-213.333v-192l-298.667 213.333-298.667-213.333v192zM512 448l298.667-213.333v-192l-298.667 213.333-298.667-213.333v192z" />
<glyph unicode="&#xe901;" glyph-name="copy" d="M682.667 853.333h-512c-46.933 0-85.333-38.4-85.333-85.333v-597.333h85.333v597.333h512v85.333zM810.667 682.667h-469.333c-46.933 0-85.333-38.4-85.333-85.333v-597.333c0-46.933 38.4-85.333 85.333-85.333h469.333c46.933 0 85.333 38.4 85.333 85.333v597.333c0 46.933-38.4 85.333-85.333 85.333zM810.667 0h-469.333v597.333h469.333v-597.333z" />
<glyph unicode="&#xe902;" glyph-name="campaign" d="M768 426.667c0-28.587 0-56.747 0-85.333 51.2 0 117.76 0 170.667 0 0 28.587 0 56.747 0 85.333-52.907 0-119.467 0-170.667 0zM682.667 144.64c40.96-30.293 94.293-70.4 136.533-101.973 17.067 22.613 34.133 45.653 51.2 68.267-42.24 31.573-95.573 71.68-136.533 102.4-17.067-23.040-34.133-46.080-51.2-68.693zM870.4 657.067c-17.067 22.613-34.133 45.653-51.2 68.267-42.24-31.573-95.573-71.68-136.533-102.4 17.067-22.613 34.133-45.653 51.2-68.267 40.96 30.72 94.293 70.4 136.533 102.4zM170.667 512c-46.933 0-85.333-38.4-85.333-85.333v-85.333c0-46.933 38.4-85.333 85.333-85.333h42.667v-170.667h85.333v170.667h42.667l213.333-128v512l-213.333-128h-170.667zM385.28 439.040l84.053 50.347v-210.773l-84.053 50.347-20.48 12.373h-194.133v85.333h194.133l20.48 12.373zM661.333 384c0 56.747-24.747 107.947-64 142.933v-285.44c39.253 34.56 64 85.76 64 142.507z" />
<glyph unicode="&#xe903;" glyph-name="visibility-off" d="M512 640c161.707 0 305.92-90.88 376.32-234.667-25.173-52.053-60.587-96.853-102.827-133.12l60.16-60.16c59.307 52.48 106.24 118.187 135.68 193.28-73.813 187.307-256 320-469.333 320-54.187 0-106.24-8.533-155.307-24.32l70.4-70.4c27.733 5.547 55.893 9.387 84.907 9.387zM466.347 591.36l88.32-88.32c24.32-10.667 43.947-30.293 54.613-54.613l88.32-88.32c3.413 14.507 5.973 29.867 5.973 45.653 0.427 105.813-85.76 191.573-191.573 191.573-15.787 0-30.72-2.133-45.653-5.973zM85.76 730.88l114.347-114.347c-69.547-54.613-124.587-127.147-157.44-211.2 73.813-187.307 256-320 469.333-320 64.853 0 127.147 12.373 184.32 34.987l145.92-145.92 60.16 60.16-756.48 756.907-60.16-60.587zM405.76 410.88l111.36-111.36c-1.707-0.427-3.413-0.853-5.12-0.853-58.88 0-106.667 47.787-106.667 106.667 0 2.133 0.427 3.413 0.427 5.547zM260.693 555.947l74.667-74.667c-9.813-23.467-15.36-49.067-15.36-75.947 0-105.813 86.187-192 192-192 26.88 0 52.48 5.547 75.52 15.36l41.813-41.813c-37.547-10.24-76.8-16.213-117.333-16.213-161.707 0-305.92 90.88-376.32 234.667 29.867 61.013 73.387 111.36 125.013 150.613z" />
<glyph unicode="&#xe904;" glyph-name="visibility" d="M512 640c161.707 0 305.92-90.88 376.32-234.667-70.4-143.787-214.613-234.667-376.32-234.667s-305.92 90.88-376.32 234.667c70.4 143.787 214.613 234.667 376.32 234.667zM512 725.333c-213.333 0-395.52-132.693-469.333-320 73.813-187.307 256-320 469.333-320s395.52 132.693 469.333 320c-73.813 187.307-256 320-469.333 320zM512 512c58.88 0 106.667-47.787 106.667-106.667s-47.787-106.667-106.667-106.667-106.667 47.787-106.667 106.667 47.787 106.667 106.667 106.667zM512 597.333c-105.813 0-192-86.187-192-192s86.187-192 192-192 192 86.187 192 192-86.187 192-192 192z" />
<glyph unicode="&#xe905;" glyph-name="add" d="M810.667 341.333h-256v-256h-85.333v256h-256v85.333h256v256h85.333v-256h256v-85.333z" />
<glyph unicode="&#xe906;" glyph-name="arrow-drop-down" d="M298.667 469.333l213.333-213.333 213.333 213.333h-426.667z" />
<glyph unicode="&#xe907;" glyph-name="arrow-drop-up" d="M298.667 298.667l213.333 213.333 213.333-213.333h-426.667z" />
<glyph unicode="&#xe908;" glyph-name="chevron-left" d="M657.493 579.84l-60.16 60.16-256-256 256-256 60.16 60.16-195.413 195.84 195.413 195.84z" />
<glyph unicode="&#xe909;" glyph-name="chevron-right" d="M426.667 640l-60.16-60.16 195.413-195.84-195.413-195.84 60.16-60.16 256 256-256 256z" />
<glyph unicode="&#xe90a;" glyph-name="close" d="M810.667 622.507l-60.16 60.16-238.507-238.507-238.507 238.507-60.16-60.16 238.507-238.507-238.507-238.507 60.16-60.16 238.507 238.507 238.507-238.507 60.16 60.16-238.507 238.507 238.507 238.507z" />
<glyph unicode="&#xe90b;" glyph-name="create" d="M128 160v-160h160l471.893 471.893-160 160-471.893-471.893zM252.587 85.333h-39.253v39.253l386.56 386.56 39.253-39.253-386.56-386.56zM883.627 655.787l-99.84 99.84c-8.533 8.533-19.2 12.373-30.293 12.373s-21.76-4.267-29.867-12.373l-78.080-78.080 160-160 78.080 78.080c16.64 16.64 16.64 43.52 0 60.16z" />
<glyph unicode="&#xe90c;" glyph-name="dashboard" d="M810.667 682.667v-85.333h-170.667v85.333h170.667zM384 682.667v-256h-170.667v256h170.667zM810.667 341.333v-256h-170.667v256h170.667zM384 170.667v-85.333h-170.667v85.333h170.667zM896 768h-341.333v-256h341.333v256zM469.333 768h-341.333v-426.667h341.333v426.667zM896 426.667h-341.333v-426.667h341.333v426.667zM469.333 256h-341.333v-256h341.333v256z" />
<glyph unicode="&#xe90d;" glyph-name="delete" d="M256 85.333c0-46.933 38.4-85.333 85.333-85.333h341.333c46.933 0 85.333 38.4 85.333 85.333v512h-512v-512zM341.333 512h341.333v-426.667h-341.333v426.667zM661.333 725.333l-42.667 42.667h-213.333l-42.667-42.667h-149.333v-85.333h597.333v85.333h-149.333z" />
<glyph unicode="&#xe90e;" glyph-name="download" d="M213.333 42.667h597.333v85.333h-597.333v-85.333zM810.667 512h-170.667v256h-256v-256h-170.667l298.667-298.667 298.667 298.667z" />
<glyph unicode="&#xe90f;" glyph-name="feed" d="M682.667 768h-469.333c-46.933 0-85.333-38.4-85.333-85.333v-597.333c0-46.933 38.4-85.333 85.333-85.333h597.333c46.933 0 85.333 38.4 85.333 85.333v469.333l-213.333 213.333zM810.667 85.333h-597.333v597.333h426.667v-170.667h170.667v-426.667zM298.667 170.667h426.667v85.333h-426.667v-85.333zM512 597.333h-213.333v-85.333h213.333v85.333zM298.667 341.333h426.667v85.333h-426.667v-85.333z" />
<glyph unicode="&#xe910;" glyph-name="filter-list" d="M426.667 128h170.667v85.333h-170.667v-85.333zM128 640v-85.333h768v85.333h-768zM256 341.333h512v85.333h-512v-85.333z" />
<glyph unicode="&#xe911;" glyph-name="help" d="M469.333 128h85.333v85.333h-85.333v-85.333zM512 810.667c-235.52 0-426.667-191.147-426.667-426.667s191.147-426.667 426.667-426.667 426.667 191.147 426.667 426.667-191.147 426.667-426.667 426.667zM512 42.667c-188.16 0-341.333 153.173-341.333 341.333s153.173 341.333 341.333 341.333 341.333-153.173 341.333-341.333-153.173-341.333-341.333-341.333zM512 640c-94.293 0-170.667-76.373-170.667-170.667h85.333c0 46.933 38.4 85.333 85.333 85.333s85.333-38.4 85.333-85.333c0-85.333-128-74.667-128-213.333h85.333c0 96 128 106.667 128 213.333 0 94.293-76.373 170.667-170.667 170.667z" />
<glyph unicode="&#xe912;" glyph-name="home" d="M512 653.227l213.333-192v-333.227h-85.333v256h-256v-256h-85.333v333.227l213.333 192zM512 768l-426.667-384h128v-341.333h256v256h85.333v-256h256v341.333h128l-426.667 384z" />
<glyph unicode="&#xe913;" glyph-name="notifications" d="M512-42.667c46.933 0 85.333 38.4 85.333 85.333h-170.667c0-46.933 38.4-85.333 85.333-85.333zM768 213.333v213.333c0 130.987-69.547 240.64-192 269.653v29.013c0 35.413-28.587 64-64 64s-64-28.587-64-64v-29.013c-122.027-29.013-192-138.24-192-269.653v-213.333l-85.333-85.333v-42.667h682.667v42.667l-85.333 85.333zM682.667 170.667h-341.333v256c0 105.813 64.427 192 170.667 192s170.667-86.187 170.667-192v-256z" />
<glyph unicode="&#xe914;" glyph-name="settings" d="M829.013 342.187c1.707 13.653 2.987 27.307 2.987 41.813s-1.28 28.16-2.987 41.813l90.027 70.4c8.107 6.4 10.24 17.92 5.12 27.307l-85.333 147.627c-3.84 6.827-11.093 10.667-18.773 10.667-2.56 0-5.12-0.427-7.253-1.28l-106.24-42.667c-22.187 17.067-46.080 31.147-72.107 41.813l-16.213 113.067c-1.28 10.24-10.24 17.92-20.907 17.92h-170.667c-10.667 0-19.627-7.68-20.907-17.92l-16.213-113.067c-26.027-10.667-49.92-25.173-72.107-41.813l-106.24 42.667c-2.56 0.853-5.12 1.28-7.68 1.28-7.253 0-14.507-3.84-18.347-10.667l-85.333-147.627c-5.547-9.387-2.987-20.907 5.12-27.307l90.027-70.4c-1.707-13.653-2.987-27.733-2.987-41.813s1.28-28.16 2.987-41.813l-90.027-70.4c-8.107-6.4-10.24-17.92-5.12-27.307l85.333-147.627c3.84-6.827 11.093-10.667 18.773-10.667 2.56 0 5.12 0.427 7.253 1.28l106.24 42.667c22.187-17.067 46.080-31.147 72.107-41.813l16.213-113.067c1.28-10.24 10.24-17.92 20.907-17.92h170.667c10.667 0 19.627 7.68 20.907 17.92l16.213 113.067c26.027 10.667 49.92 25.173 72.107 41.813l106.24-42.667c2.56-0.853 5.12-1.28 7.68-1.28 7.253 0 14.507 3.84 18.347 10.667l85.333 147.627c5.12 9.387 2.987 20.907-5.12 27.307l-90.027 70.4zM744.533 415.147c1.707-13.227 2.133-22.187 2.133-31.147s-0.853-18.347-2.133-31.147l-5.973-48.213 37.973-29.867 46.080-35.84-29.867-51.627-54.187 21.76-44.373 17.92-38.4-29.013c-18.347-13.653-35.84-23.893-53.333-31.147l-45.227-18.347-6.827-48.213-8.533-57.6h-59.733l-8.107 57.6-6.827 48.213-45.227 18.347c-18.347 7.68-35.413 17.493-52.48 30.293l-38.827 29.867-45.227-18.347-54.187-21.76-29.867 51.627 46.080 35.84 37.973 29.867-5.973 48.213c-1.28 13.227-2.133 23.040-2.133 31.573s0.853 18.347 2.133 31.147l5.973 48.213-37.973 29.867-46.080 35.84 29.867 51.627 54.187-21.76 44.373-17.92 38.4 29.013c18.347 13.653 35.84 23.893 53.333 31.147l45.227 18.347 6.827 48.213 8.533 57.6h59.307l8.107-57.6 6.827-48.213 45.227-18.347c18.347-7.68 35.413-17.493 52.48-30.293l38.827-29.867 45.227 18.347 54.187 21.76 29.867-51.627-45.653-36.267-37.973-29.867 5.973-48.213zM512 554.667c-94.293 0-170.667-76.373-170.667-170.667s76.373-170.667 170.667-170.667 170.667 76.373 170.667 170.667-76.373 170.667-170.667 170.667zM512 298.667c-46.933 0-85.333 38.4-85.333 85.333s38.4 85.333 85.333 85.333 85.333-38.4 85.333-85.333-38.4-85.333-85.333-85.333z" />
<glyph unicode="&#xe915;" glyph-name="sidebar" d="M853.333 768h-682.667c-46.933 0-85.333-38.4-85.333-85.333v-597.333c0-46.933 38.4-85.333 85.333-85.333h682.667c46.933 0 85.333 38.4 85.333 85.333v597.333c0 46.933-38.4 85.333-85.333 85.333zM853.333 85.333h-682.667v597.333h682.667v-597.333zM512 512v-256l213.333 128-213.333 128zM213.333 640h213.333v-85.333h-213.333v85.333zM213.333 469.333h213.333v-85.333h-213.333v85.333zM213.333 213.333h213.333v-85.333h-213.333v85.333z" />
<glyph unicode="&#xe916;" glyph-name="sort" d="M128 128h256v85.333h-256v-85.333zM128 640v-85.333h768v85.333h-768zM128 341.333h512v85.333h-512v-85.333z" />
<glyph unicode="&#xe917;" glyph-name="account" d="M512 810.667c-235.52 0-426.667-191.147-426.667-426.667s191.147-426.667 426.667-426.667 426.667 191.147 426.667 426.667-191.147 426.667-426.667 426.667zM301.653 116.053c18.347 38.4 130.133 75.947 210.347 75.947s192.427-37.547 210.347-75.947c-58.027-46.080-130.987-73.387-210.347-73.387s-152.32 27.307-210.347 73.387zM783.36 177.92c-61.013 74.24-209.067 99.413-271.36 99.413s-210.347-25.173-271.36-99.413c-43.52 57.173-69.973 128.427-69.973 206.080 0 188.16 153.173 341.333 341.333 341.333s341.333-153.173 341.333-341.333c0-77.653-26.453-148.907-69.973-206.080zM512 640c-82.773 0-149.333-66.56-149.333-149.333s66.56-149.333 149.333-149.333 149.333 66.56 149.333 149.333-66.56 149.333-149.333 149.333zM512 426.667c-35.413 0-64 28.587-64 64s28.587 64 64 64 64-28.587 64-64-28.587-64-64-64z" />
<glyph unicode="&#xe918;" glyph-name="check" d="M384 204.8l-179.2 179.2-59.733-59.733 238.933-238.933 512 512-59.733 59.733-452.267-452.267z" />
<glyph unicode="&#xe919;" glyph-name="chevron-down" d="M707.84 529.493l-195.84-195.413-195.84 195.413-60.16-60.16 256-256 256 256-60.16 60.16z" />
<glyph unicode="&#xe91a;" glyph-name="chevron-up" d="M512 554.667l-256-256 60.16-60.16 195.84 195.413 195.84-195.413 60.16 60.16-256 256z" />
<glyph unicode="&#xe91b;" glyph-name="lock" d="M768 554.667h-42.667v85.333c0 117.76-95.573 213.333-213.333 213.333s-213.333-95.573-213.333-213.333h85.333c0 70.827 57.173 128 128 128s128-57.173 128-128v-85.333h-384c-46.933 0-85.333-38.4-85.333-85.333v-426.667c0-46.933 38.4-85.333 85.333-85.333h512c46.933 0 85.333 38.4 85.333 85.333v426.667c0 46.933-38.4 85.333-85.333 85.333zM768 42.667h-512v426.667h512v-426.667zM512 170.667c46.933 0 85.333 38.4 85.333 85.333s-38.4 85.333-85.333 85.333-85.333-38.4-85.333-85.333 38.4-85.333 85.333-85.333z" />
<glyph unicode="&#xe91c;" glyph-name="logout" d="M725.333 554.667l-60.16-60.16 67.413-67.84h-348.587v-85.333h348.587l-67.413-67.413 60.16-60.587 170.667 170.667-170.667 170.667zM213.333 682.667h298.667v85.333h-298.667c-46.933 0-85.333-38.4-85.333-85.333v-597.333c0-46.933 38.4-85.333 85.333-85.333h298.667v85.333h-298.667v597.333z" />
<glyph unicode="&#xe91d;" glyph-name="add-photo" d="M768 42.667h-597.333v597.333h384v85.333h-384c-46.933 0-85.333-38.4-85.333-85.333v-597.333c0-46.933 38.4-85.333 85.333-85.333h597.333c46.933 0 85.333 38.4 85.333 85.333v384h-85.333v-384zM435.627 177.92l-83.627 100.693-117.333-150.613h469.333l-151.040 200.96zM853.333 725.333v128h-85.333v-128h-128c0.427-0.427 0-85.333 0-85.333h128v-127.573c0.427-0.427 85.333 0 85.333 0v127.573h128v85.333h-128z" />
<glyph unicode="&#xe91e;" glyph-name="id-card" horiz-adv-x="1280" d="M1152 896h-1024c-70.592 0-128-57.408-128-128v-768c0-70.593 57.408-128 128-128h1024c70.593 0 128 57.407 128 128v768c0 70.592-57.407 128-128 128zM429.761 640c73.665 0 128-54.335 128-128s-54.335-128-128-128c-73.665 0-128 54.335-128 128s54.272 128 128 128zM192 128v29.759c0 87.871 107.264 178.239 237.761 178.239s237.757-90.368 237.757-178.239v-29.759h-475.518zM1088 192h-256v128h256v-128zM768 448v128h320v-128h-320z" />
<glyph unicode="&#xe91f;" glyph-name="image" d="M810.667 682.667v-597.333h-597.333v597.333h597.333zM810.667 768h-597.333c-46.933 0-85.333-38.4-85.333-85.333v-597.333c0-46.933 38.4-85.333 85.333-85.333h597.333c46.933 0 85.333 38.4 85.333 85.333v597.333c0 46.933-38.4 85.333-85.333 85.333zM603.307 389.973l-128-165.12-91.307 110.507-128-164.693h512l-164.693 219.307z" />
<glyph unicode="&#xe920;" glyph-name="info" d="M469.333 597.333h85.333v-85.333h-85.333zM469.333 426.667h85.333v-256h-85.333zM512 810.667c-235.52 0-426.667-191.147-426.667-426.667s191.147-426.667 426.667-426.667 426.667 191.147 426.667 426.667-191.147 426.667-426.667 426.667zM512 42.667c-188.16 0-341.333 153.173-341.333 341.333s153.173 341.333 341.333 341.333 341.333-153.173 341.333-341.333-153.173-341.333-341.333-341.333z" />
<glyph unicode="&#xe921;" glyph-name="account-fill" d="M512 810.667c-235.52 0-426.667-191.147-426.667-426.667s191.147-426.667 426.667-426.667 426.667 191.147 426.667 426.667-191.147 426.667-426.667 426.667zM512 682.667c70.827 0 128-57.173 128-128s-57.173-128-128-128-128 57.173-128 128 57.173 128 128 128zM512 76.8c-106.667 0-200.96 54.613-256 137.387 1.28 84.907 170.667 131.413 256 131.413 84.907 0 254.72-46.507 256-131.413-55.040-82.773-149.333-137.387-256-137.387z" />
<glyph unicode="&#xe922;" glyph-name="add-circle" d="M554.667 597.333h-85.333v-170.667h-170.667v-85.333h170.667v-170.667h85.333v170.667h170.667v85.333h-170.667v170.667zM512 810.667c-235.52 0-426.667-191.147-426.667-426.667s191.147-426.667 426.667-426.667 426.667 191.147 426.667 426.667-191.147 426.667-426.667 426.667zM512 42.667c-188.16 0-341.333 153.173-341.333 341.333s153.173 341.333 341.333 341.333 341.333-153.173 341.333-341.333-153.173-341.333-341.333-341.333z" />
<glyph unicode="&#xe923;" glyph-name="upload" d="M768 256v-128h-512v128h-85.333v-128c0-46.933 38.4-85.333 85.333-85.333h512c46.933 0 85.333 38.4 85.333 85.333v128h-85.333zM298.667 512l60.16-60.16 110.507 110.080v-348.587h85.333v348.587l110.507-110.080 60.16 60.16-213.333 213.333-213.333-213.333z" />
<glyph unicode="&#xe924;" glyph-name="comment" d="M938.24 725.333c0 46.933-37.973 85.333-84.907 85.333h-682.667c-46.933 0-85.333-38.4-85.333-85.333v-512c0-46.933 38.4-85.333 85.333-85.333h597.333l170.667-170.667-0.427 768zM853.333 725.333v-561.92l-49.92 49.92h-632.747v512h682.667zM256 384h512v-85.333h-512zM256 512h512v-85.333h-512zM256 640h512v-85.333h-512z" />
<glyph unicode="&#xe925;" glyph-name="image-1" d="M878.15 740h-757.765c-27.396-0.032-53.66-10.929-73.032-30.301s-30.269-45.636-30.3-73.031v-378.884c0.001-6.811 2.022-13.468 5.807-19.133s9.164-10.078 15.457-12.681c6.293-2.609 13.217-3.288 19.898-1.962 6.68 1.331 12.817 4.608 17.634 9.426l157.943 157.941c6.562 6.267 15.287 9.764 24.36 9.764s17.799-3.497 24.36-9.764l226.848-226.829c6.459-6.462 15.219-10.089 24.352-10.089 9.131 0 17.895 3.627 24.351 10.089l89.056 89.053c6.564 6.267 15.285 9.764 24.36 9.764s17.801-3.497 24.36-9.764l89.056-89.053c6.494-6.279 15.198-9.75 24.226-9.669 9.033 0.075 17.672 3.703 24.059 10.084 6.387 6.387 10.008 15.026 10.089 24.059 0.075 9.033-3.395 17.731-9.669 24.226l-89.056 89.057c-19.391 19.352-45.67 30.22-73.065 30.22s-53.674-10.868-73.065-30.22l-64.702-64.686-202.479 202.462c-19.392 19.352-45.669 30.22-73.065 30.22s-53.673-10.868-73.065-30.22l-99.164-99.13v295.719c0 9.135 3.629 17.896 10.089 24.356s15.22 10.088 24.356 10.088h757.765c9.135 0 17.898-3.629 24.36-10.088 6.457-6.46 10.084-15.221 10.084-24.356v-516.661c0-9.135-3.627-17.893-10.084-24.355-6.462-6.462-15.225-10.089-24.36-10.089h-757.765c-9.135 0-17.896 3.627-24.356 10.089s-10.089 15.22-10.089 24.355c0 9.135-3.629 17.898-10.089 24.355-6.459 6.462-15.22 10.089-24.355 10.089s-17.896-3.627-24.356-10.089c-6.459-6.457-10.088-15.22-10.088-24.355 0.032-27.395 10.929-53.658 30.3-73.033 19.372-19.37 45.636-30.267 73.032-30.3h757.765c27.4 0.032 53.663 10.93 73.033 30.3 19.375 19.375 30.273 45.638 30.3 73.033v516.661c-0.027 27.395-10.924 53.66-30.3 73.031-19.37 19.372-45.633 30.269-73.033 30.301zM774.785 464.435c38.044 0 68.883 30.842 68.883 68.888s-30.839 68.888-68.883 68.888c-38.050 0-68.888-30.842-68.888-68.888s30.839-68.888 68.888-68.888z" />
<glyph unicode="&#xe926;" glyph-name="send" d="M236.928 831.936c-69.711-2.463-117.338-75.203-91.421-139.997l121.407-303.516-121.407-303.181c-16.893-42.202-2.995-86.944 25.721-113.344s74.694-36.461 115.343-16.128l682.262 341.232c73.549 36.789 73.568 146.34 0 183.109l-682.262 340.964c-15.119 7.569-32.251 11.48-49.642 10.861zM239.46 763.97c5.48 0.258 11.046-1.18 16.392-3.798l682.26-341.031c27.168-13.578 27.168-47.58 0-61.169l-682.26-341.229c-15.529-7.763-28.27-3.718-38.314 5.53-10.045 9.229-14.98 21.664-8.529 37.779l117.875 294.389h186.574c4.545-0.102 9.064 0.705 13.293 2.373s8.081 4.166 11.331 7.343c3.25 3.178 5.832 6.974 7.596 11.164s2.671 8.69 2.671 13.236c0 4.546-0.908 9.046-2.671 13.236s-4.346 7.985-7.596 11.164c-3.251 3.178-7.103 5.675-11.331 7.343s-8.748 2.476-13.293 2.374h-186.707l-117.741 294.454c-9.131 22.828 5.853 45.926 30.451 46.844zM35.961 559.205c-9.057 0-17.743-3.598-24.147-10.003s-10.002-15.090-10.002-24.147c0-9.057 3.598-17.743 10.002-24.148s15.090-10.002 24.147-10.002h68.299c9.057 0 17.743 3.598 24.148 10.002s10.002 15.091 10.002 24.148c0 9.057-3.598 17.743-10.002 24.147s-15.091 10.003-24.148 10.003h-68.299zM35.961 422.673c-4.545 0.102-9.064-0.705-13.292-2.374s-8.081-4.165-11.331-7.343c-3.25-3.178-5.833-6.973-7.596-11.164s-2.671-8.69-2.671-13.236c0-4.546 0.908-9.046 2.671-13.236s4.346-7.985 7.596-11.164c3.25-3.178 7.103-5.674 11.331-7.343s8.748-2.476 13.292-2.373h136.532c4.545-0.102 9.064 0.705 13.292 2.373s8.081 4.166 11.331 7.343c3.251 3.178 5.833 6.974 7.596 11.164s2.671 8.69 2.671 13.236c0 4.546-0.908 9.046-2.671 13.236s-4.346 7.985-7.596 11.164c-3.25 3.178-7.103 5.675-11.331 7.343s-8.748 2.476-13.292 2.374h-136.532zM32.43 286.207c-9.057-0.468-17.557-4.516-23.63-11.251s-9.222-15.608-8.754-24.664c0.468-9.057 4.515-17.557 11.251-23.631s15.608-9.222 24.665-8.753h68.299c9.057 0 17.743 3.598 24.148 10.002s10.002 15.091 10.002 24.148c0 9.057-3.598 17.743-10.002 24.147s-15.091 10.003-24.148 10.003h-68.299c-1.176 0.061-2.355 0.061-3.532 0z" />
<glyph unicode="&#xe927;" glyph-name="language" d="M511.573 810.667c-235.52 0-426.24-191.147-426.24-426.667s190.72-426.667 426.24-426.667c235.947 0 427.093 191.147 427.093 426.667s-191.147 426.667-427.093 426.667zM807.253 554.667h-125.867c-13.653 53.333-33.28 104.533-58.88 151.893 78.507-26.88 143.787-81.493 184.747-151.893zM512 723.627c35.413-51.2 63.147-107.947 81.493-168.96h-162.987c18.347 61.013 46.080 117.76 81.493 168.96zM181.76 298.667c-6.827 27.307-11.093 55.893-11.093 85.333s4.267 58.027 11.093 85.333h144.213c-3.413-28.16-5.973-56.32-5.973-85.333s2.56-57.173 5.973-85.333h-144.213zM216.747 213.333h125.867c13.653-53.333 33.28-104.533 58.88-151.893-78.507 26.88-143.787 81.067-184.747 151.893zM342.613 554.667h-125.867c40.96 70.827 106.24 125.013 184.747 151.893-25.6-47.36-45.227-98.56-58.88-151.893zM512 44.373c-35.413 51.2-63.147 107.947-81.493 168.96h162.987c-18.347-61.013-46.080-117.76-81.493-168.96zM611.84 298.667h-199.68c-3.84 28.16-6.827 56.32-6.827 85.333s2.987 57.6 6.827 85.333h199.68c3.84-27.733 6.827-56.32 6.827-85.333s-2.987-57.173-6.827-85.333zM622.507 61.44c25.6 47.36 45.227 98.56 58.88 151.893h125.867c-40.96-70.4-106.24-125.013-184.747-151.893zM698.027 298.667c3.413 28.16 5.973 56.32 5.973 85.333s-2.56 57.173-5.973 85.333h144.213c6.827-27.307 11.093-55.893 11.093-85.333s-4.267-58.027-11.093-85.333h-144.213z" />
<glyph unicode="&#xe928;" glyph-name="comment-rounded" d="M711.424 326.127c-34.718 0-62.865 28.122-62.865 62.814 0 34.688 28.147 62.81 62.865 62.81 34.722 0 62.869-28.122 62.869-62.81 0-34.692-28.147-62.814-62.869-62.814zM517.466 326.127c-34.718 0-62.865 28.122-62.865 62.814 0 34.688 28.147 62.81 62.865 62.81 34.722 0 62.869-28.122 62.869-62.81 0-34.692-28.147-62.814-62.869-62.814zM323.467 326.127c-34.72 0-62.867 28.122-62.867 62.814 0 34.688 28.146 62.81 62.867 62.81s62.867-28.122 62.867-62.81c0-34.692-28.146-62.814-62.867-62.814zM90.863 42.577l61.969 136.388c-36.822 63.71-56.58 136.393-56.58 210.867 0 232.401 188.6 420.834 421.205 420.834 232.61 0 421.21-189.33 421.21-421.73s-188.599-420.834-421.21-420.834c-74.539 0-146.388 19.738-211.051 56.529l-135.613-61.914c-8.083-3.588-17.064-5.385-25.147-5.385-15.268 0-30.535 6.281-42.211 17.946-17.962 17.946-23.351 43.968-12.573 67.298zM294.731 96.414c4.491 1.796 9.879 3.588 14.37 3.588 6.287 0 13.471-1.792 18.86-5.38 56.58-35.895 122.143-55.633 189.496-55.633 193.092 0 351.159 157.026 351.159 350.844s-157.167 350.845-351.159 350.845c-193.987 0-351.154-157.027-351.154-350.845 0-67.298 18.86-132.8 55.682-189.329 6.287-9.873 7.185-22.434 2.694-33.203l-58.376-128.311 128.428 57.425z" />
<glyph unicode="&#xe929;" glyph-name="dots-verticle" d="M512 554.667c46.933 0 85.333 38.4 85.333 85.333s-38.4 85.333-85.333 85.333-85.333-38.4-85.333-85.333 38.4-85.333 85.333-85.333zM512 469.333c-46.933 0-85.333-38.4-85.333-85.333s38.4-85.333 85.333-85.333 85.333 38.4 85.333 85.333-38.4 85.333-85.333 85.333zM512 213.333c-46.933 0-85.333-38.4-85.333-85.333s38.4-85.333 85.333-85.333 85.333 38.4 85.333 85.333-38.4 85.333-85.333 85.333z" />
<glyph unicode="&#xe92a;" glyph-name="lock-close" d="M768 554.667h-42.667v85.333c0 117.76-95.573 213.333-213.333 213.333s-213.333-95.573-213.333-213.333v-85.333h-42.667c-46.933 0-85.333-38.4-85.333-85.333v-426.667c0-46.933 38.4-85.333 85.333-85.333h512c46.933 0 85.333 38.4 85.333 85.333v426.667c0 46.933-38.4 85.333-85.333 85.333zM384 640c0 70.827 57.173 128 128 128s128-57.173 128-128v-85.333h-256v85.333zM768 42.667h-512v426.667h512v-426.667zM512 170.667c46.933 0 85.333 38.4 85.333 85.333s-38.4 85.333-85.333 85.333-85.333-38.4-85.333-85.333 38.4-85.333 85.333-85.333z" />
<glyph unicode="&#xe92b;" glyph-name="more-horizontal" d="M256 469.333c-46.933 0-85.333-38.4-85.333-85.333s38.4-85.333 85.333-85.333 85.333 38.4 85.333 85.333-38.4 85.333-85.333 85.333zM768 469.333c-46.933 0-85.333-38.4-85.333-85.333s38.4-85.333 85.333-85.333 85.333 38.4 85.333 85.333-38.4 85.333-85.333 85.333zM512 469.333c-46.933 0-85.333-38.4-85.333-85.333s38.4-85.333 85.333-85.333 85.333 38.4 85.333 85.333-38.4 85.333-85.333 85.333z" />
<glyph unicode="&#xe92c;" glyph-name="forum" d="M640 725.333v-298.667h-419.413l-49.92-49.92v348.587h469.333zM682.667 810.667h-554.667c-23.467 0-42.667-19.2-42.667-42.667v-597.333l170.667 170.667h426.667c23.467 0 42.667 19.2 42.667 42.667v384c0 23.467-19.2 42.667-42.667 42.667zM896 640h-85.333v-384h-554.667v-85.333c0-23.467 19.2-42.667 42.667-42.667h469.333l170.667-170.667v640c0 23.467-19.2 42.667-42.667 42.667z" />
<glyph unicode="&#xe92d;" glyph-name="add-circle1" d="M512 810.667c-235.52 0-426.667-191.147-426.667-426.667s191.147-426.667 426.667-426.667 426.667 191.147 426.667 426.667-191.147 426.667-426.667 426.667zM725.333 341.333h-170.667v-170.667h-85.333v170.667h-170.667v85.333h170.667v170.667h85.333v-170.667h170.667v-85.333z" />
<glyph unicode="&#xe92e;" glyph-name="cancel" d="M512 810.667c-235.947 0-426.667-190.72-426.667-426.667s190.72-426.667 426.667-426.667 426.667 190.72 426.667 426.667-190.72 426.667-426.667 426.667zM695.467 200.533c-16.64-16.64-43.52-16.64-60.16 0l-123.307 123.307-123.307-123.307c-16.64-16.64-43.52-16.64-60.16 0s-16.64 43.52 0 60.16l123.307 123.307-123.307 123.307c-16.64 16.64-16.64 43.52 0 60.16s43.52 16.64 60.16 0l123.307-123.307 123.307 123.307c16.64 16.64 43.52 16.64 60.16 0s16.64-43.52 0-60.16l-123.307-123.307 123.307-123.307c16.213-16.213 16.213-43.52 0-60.16z" />
<glyph unicode="&#xe92f;" glyph-name="remove" d="M512 810.667c-235.52 0-426.667-191.147-426.667-426.667s191.147-426.667 426.667-426.667 426.667 191.147 426.667 426.667-191.147 426.667-426.667 426.667zM725.333 341.333h-426.667v85.333h426.667v-85.333z" />
<glyph unicode="&#xe930;" glyph-name="schedule" d="M511.573 810.667c-235.52 0-426.24-191.147-426.24-426.667s190.72-426.667 426.24-426.667c235.947 0 427.093 191.147 427.093 426.667s-191.147 426.667-427.093 426.667zM512 42.667c-188.587 0-341.333 152.747-341.333 341.333s152.747 341.333 341.333 341.333 341.333-152.747 341.333-341.333-152.747-341.333-341.333-341.333zM533.333 597.333h-64v-256l224-134.4 32 52.48-192 113.92z" />
<glyph unicode="&#xe931;" glyph-name="amp" d="M512 809.813c-235.093 0-425.813-190.72-425.813-425.813s190.72-425.813 425.813-425.813 425.813 190.72 425.813 425.813-190.72 425.813-425.813 425.813zM489.813 42.667v267.093h-148.48l213.333 415.573v-267.093h142.933l-207.787-415.573z" />
<glyph unicode="&#xe932;" glyph-name="desktop" d="M896 810.667h-768c-46.933 0-85.333-38.4-85.333-85.333v-512c0-46.933 38.4-85.333 85.333-85.333h298.667v-85.333h-85.333v-85.333h341.333v85.333h-85.333v85.333h298.667c46.933 0 85.333 38.4 85.333 85.333v512c0 46.933-38.4 85.333-85.333 85.333zM896 213.333h-768v512h768v-512z" />
<glyph unicode="&#xe933;" glyph-name="mobile" d="M661.333 853.333h-341.333c-58.88 0-106.667-47.787-106.667-106.667v-725.333c0-58.88 47.787-106.667 106.667-106.667h341.333c58.88 0 106.667 47.787 106.667 106.667v725.333c0 58.88-47.787 106.667-106.667 106.667zM490.667-42.667c-35.413 0-64 28.587-64 64s28.587 64 64 64 64-28.587 64-64-28.587-64-64-64zM682.667 128h-384v597.333h384v-597.333z" />
<glyph unicode="&#xe934;" glyph-name="tablet" d="M789.333 896h-597.333c-58.88 0-106.667-47.787-106.667-106.667v-810.667c0-58.88 47.787-106.667 106.667-106.667h597.333c58.88 0 106.667 47.787 106.667 106.667v810.667c0 58.88-47.787 106.667-106.667 106.667zM490.667-85.333c-35.413 0-64 28.587-64 64s28.587 64 64 64 64-28.587 64-64-28.587-64-64-64zM810.667 85.333h-640v682.667h640v-682.667z" />
<glyph unicode="&#xe935;" glyph-name="bat" d="M641.707 350.293l-362.667 362.667c-8.107 8.107-19.2 12.373-30.293 12.373s-21.76-4.267-29.867-12.373l-121.173-121.173c-16.64-16.64-16.64-43.947 0-60.587l362.667-362.667c8.533-8.533 19.2-12.373 30.293-12.373s21.76 4.267 30.293 12.373l120.747 120.747c16.64 17.067 16.64 44.373 0 61.013zM490.667 259.413l-302.507 302.507 60.587 60.587 302.507-302.507-60.587-60.587zM611.892 138.402l60.339 60.339 181.018-181.018-60.339-60.339-181.018 181.018zM789.333 810.667c-82.347 0-149.333-66.987-149.333-149.333s66.987-149.333 149.333-149.333 149.333 66.987 149.333 149.333c0 82.347-66.987 149.333-149.333 149.333zM789.333 597.333c-35.413 0-64 28.587-64 64s28.587 64 64 64 64-28.587 64-64-28.587-64-64-64z" />
<glyph unicode="&#xe936;" glyph-name="wk" d="M298.667 42.667c0-23.467 19.2-42.667 42.667-42.667h341.333c23.467 0 42.667 19.2 42.667 42.667v128h-426.667v-128zM768 597.333c-23.467 0-42.667-19.2-42.667-42.667v128c0 46.933-38.4 85.333-85.333 85.333h-341.333c-46.933 0-85.333-38.4-85.333-85.333v-247.467c0-5.547 0.427-11.093 1.707-16.64l34.133-170.667c3.84-20.053 21.333-34.133 41.813-34.133h434.347c23.467 0 46.507 18.773 51.2 41.813l32.853 163.413c0.853 5.12 1.28 10.667 1.28 16.213v119.467c0 23.467-19.2 42.667-42.667 42.667zM725.333 443.733c0-5.547-27.307-145.067-27.307-145.067h-372.053c0 0-27.307 139.093-27.307 145.067v238.933h341.333v-213.333h85.333v-25.6zM341.333 597.333h256v-128h-256v128z" />
<glyph unicode="&#xe937;" glyph-name="merge" d="M320 554l192 192 192-192h-150v-272l-256-256-60 60 232 230v238h-150zM726 26l-146 144 60 60 146-144z" />
<glyph unicode="&#xe938;" glyph-name="baseball" d="M800 74.713c-71.373-66.223-166.958-106.713-272-106.713s-200.627 40.489-272 106.713v0 0c17.326 16.076 33.225 33.668 47.486 52.566l23.542-17.104 18.809 25.889-24.105 17.514c15.885 24.968 29.077 51.816 39.168 80.136l29.764-9.671 9.889 30.434-30.136 9.792c7.536 28.141 12.079 57.506 13.268 87.733h32.314v32h-32.314c-1.189 30.227-5.732 59.592-13.268 87.733l30.136 9.792-9.889 30.434-29.764-9.671c-10.091 28.32-23.283 55.168-39.168 80.136l24.105 17.514-18.809 25.889-23.542-17.104c-14.261 18.898-30.16 36.49-47.486 52.566v0c71.373 66.223 166.958 106.713 272 106.713s200.627-40.489 272-106.713v0c-17.326-16.076-33.225-33.668-47.486-52.566l-23.542 17.104-18.809-25.889 24.105-17.514c-15.885-24.968-29.077-51.816-39.168-80.136l-29.764 9.671-9.889-30.434 30.136-9.792c-7.536-28.141-12.079-57.506-13.268-87.733h-32.314v-32h32.314c1.189-30.227 5.732-59.592 13.268-87.733v0l-30.136-9.792 9.889-30.434 29.764 9.671c10.091-28.32 23.283-55.168 39.168-80.136l-24.105-17.514 18.809-25.889 23.542 17.104c14.261-18.898 30.16-36.49 47.486-52.566v0 0 0zM840.56 118.365c54.72 68.424 87.44 155.209 87.44 249.635 0 104.352-39.959 199.371-105.411 270.591-16.126-14.871-30.919-31.165-44.18-48.683l28.229-20.509-18.809-25.889-27.615 20.063c-13.979-22.238-25.644-46.078-34.659-71.181l31.082-10.099-9.889-30.434-30.679 9.968c-6.573-25.002-10.582-51.044-11.727-77.827h31.658v-32h-31.658c1.146-26.783 5.154-52.825 11.727-77.827l30.679 9.968 9.889-30.434-31.082-10.099c9.015-25.103 20.68-48.942 34.659-71.181l27.615 20.063 18.809-25.889-28.229-20.509c13.261-17.518 28.055-33.812 44.18-48.683-0.433-0.471 11.82 13.263 17.972 20.955v0zM212.641 121.905c-53.035 67.866-84.641 153.289-84.641 246.095 0 104.352 39.959 199.371 105.411 270.591 16.126-14.871 30.919-31.165 44.18-48.683l-28.229-20.509 18.809-25.889 27.615 20.063c13.979-22.238 25.644-46.078 34.659-71.181l-31.082-10.099 9.889-30.434 30.679 9.968c6.573-25.002 10.582-51.044 11.727-77.827h-31.658v-32h31.658c-1.146-26.783-5.154-52.825-11.727-77.827l-30.679 9.968-9.889-30.434 31.082-10.099c-9.015-25.103-20.68-48.942-34.659-71.181l-27.615 20.063-18.809-25.889 28.229-20.509c-13.261-17.518-28.055-33.812-44.18-48.683 0.433-0.471-13.778 15.548-20.771 24.496v0z" />
<glyph unicode="&#xe939;" glyph-name="share" d="M768 209.92c-32.427 0-61.44-12.8-83.627-32.853l-304.213 177.067c2.133 9.813 3.84 19.627 3.84 29.867s-1.707 20.053-3.84 29.867l300.8 175.36c23.040-21.333 53.333-34.56 87.040-34.56 70.827 0 128 57.173 128 128s-57.173 128-128 128-128-57.173-128-128c0-10.24 1.707-20.053 3.84-29.867l-300.8-175.36c-23.040 21.333-53.333 34.56-87.040 34.56-70.827 0-128-57.173-128-128s57.173-128 128-128c33.707 0 64 13.227 87.040 34.56l303.787-177.493c-2.133-8.96-3.413-18.347-3.413-27.733 0-68.693 55.893-124.587 124.587-124.587s124.587 55.893 124.587 124.587c0 68.693-55.893 124.587-124.587 124.587zM768 725.333c23.467 0 42.667-19.2 42.667-42.667s-19.2-42.667-42.667-42.667-42.667 19.2-42.667 42.667 19.2 42.667 42.667 42.667zM256 341.333c-23.467 0-42.667 19.2-42.667 42.667s19.2 42.667 42.667 42.667 42.667-19.2 42.667-42.667-19.2-42.667-42.667-42.667zM768 41.813c-23.467 0-42.667 19.2-42.667 42.667s19.2 42.667 42.667 42.667 42.667-19.2 42.667-42.667-19.2-42.667-42.667-42.667z" />
<glyph unicode="&#xe93a;" glyph-name="file" d="M917.806 666.924c-22.212 30.292-53.174 65.7-87.178 99.704s-69.412 64.964-99.704 87.178c-51.574 37.82-76.592 42.194-90.924 42.194h-496c-44.112 0-80-35.888-80-80v-864c0-44.112 35.888-80 80-80h736c44.112 0 80 35.888 80 80v624c0 14.332-4.372 39.35-42.194 90.924zM785.374 721.374c30.7-30.7 54.8-58.398 72.58-81.374h-153.954v153.946c22.984-17.78 50.678-41.878 81.374-72.572zM896-48c0-8.672-7.328-16-16-16h-736c-8.672 0-16 7.328-16 16v864c0 8.672 7.328 16 16 16 0 0 495.956 0.002 496 0v-224c0-17.672 14.326-32 32-32h224v-624zM736 64h-448c-17.672 0-32 14.326-32 32s14.328 32 32 32h448c17.674 0 32-14.326 32-32s-14.326-32-32-32zM736 192h-448c-17.672 0-32 14.326-32 32s14.328 32 32 32h448c17.674 0 32-14.326 32-32s-14.326-32-32-32zM736 320h-448c-17.672 0-32 14.326-32 32s14.328 32 32 32h448c17.674 0 32-14.326 32-32s-14.326-32-32-32z" />
<glyph unicode="&#xe93b;" glyph-name="calendar" d="M512 298.667q-18.133 0-30.379 12.288-12.288 12.245-12.288 30.379t12.288 30.421q12.245 12.245 30.379 12.245t30.421-12.245q12.245-12.288 12.245-30.421t-12.245-30.379q-12.288-12.288-30.421-12.288zM341.333 298.667q-18.133 0-30.421 12.288-12.245 12.245-12.245 30.379t12.245 30.421q12.288 12.245 30.421 12.245t30.421-12.245q12.245-12.288 12.245-30.421t-12.245-30.379q-12.288-12.288-30.421-12.288zM682.667 298.667q-18.133 0-30.379 12.288-12.288 12.245-12.288 30.379t12.288 30.421q12.245 12.245 30.379 12.245t30.379-12.245q12.288-12.288 12.288-30.421t-12.288-30.379q-12.245-12.288-30.379-12.288zM512 128q-18.133 0-30.379 12.288-12.288 12.245-12.288 30.379t12.288 30.379q12.245 12.288 30.379 12.288t30.421-12.288q12.245-12.245 12.245-30.379t-12.245-30.379q-12.288-12.288-30.421-12.288zM341.333 128q-18.133 0-30.421 12.288-12.245 12.245-12.245 30.379t12.245 30.379q12.288 12.288 30.421 12.288t30.421-12.288q12.245-12.245 12.245-30.379t-12.245-30.379q-12.288-12.288-30.421-12.288zM682.667 128q-18.133 0-30.379 12.288-12.288 12.245-12.288 30.379t12.288 30.379q12.245 12.288 30.379 12.288t30.379-12.288q12.288-12.245 12.288-30.379t-12.288-30.379q-12.245-12.288-30.379-12.288zM213.333-42.667q-35.2 0-60.288 25.045-25.045 25.088-25.045 60.288v597.333q0 35.2 25.045 60.245 25.088 25.088 60.288 25.088h42.667v85.333h85.333v-85.333h341.333v85.333h85.333v-85.333h42.667q35.2 0 60.288-25.088 25.045-25.045 25.045-60.245v-597.333q0-35.2-25.045-60.288-25.088-25.045-60.288-25.045zM213.333 42.667h597.333q0 0 0 0t0 0v426.667h-597.333v-426.667q0 0 0 0t0 0zM213.333 554.667h597.333v85.333q0 0 0 0t0 0h-597.333q0 0 0 0t0 0zM213.333 554.667v85.333q0 0 0 0t0 0 0 0 0 0v-85.333z" />
<glyph unicode="&#xea2e;" glyph-name="refresh" d="M889.68 729.68c-93.608 102.216-228.154 166.32-377.68 166.32-282.77 0-512-229.23-512-512h96c0 229.75 186.25 416 416 416 123.020 0 233.542-53.418 309.696-138.306l-149.696-149.694h352v352l-134.32-134.32zM928 384c0-229.75-186.25-416-416-416-123.020 0-233.542 53.418-309.694 138.306l149.694 149.694h-352v-352l134.32 134.32c93.608-102.216 228.154-166.32 377.68-166.32 282.77 0 512 229.23 512 512h-96z" />
</font>
</defs>
</svg>
