<svg width="40" height="40" viewBox="0 0 40 40" fill="none" xmlns="http://www.w3.org/2000/svg">
<rect width="40" height="40" rx="8" fill="url(#paint0_linear_10_48)"/>
<path d="M9.04009 13.2124L17.2754 19.4314C17.64 19.7067 17.853 20.1381 17.85 20.595L17.8085 26.8115C17.8054 27.2845 18.1879 27.6696 18.6609 27.6696L18.6827 20.8068C18.6854 19.9873 18.3015 19.2146 17.6469 18.7216L8.57205 11.8862C10.3477 10.2159 13.0651 10.058 15.0223 11.5114L18.2368 13.8984C18.9969 14.4629 20.0381 14.4591 20.7942 13.8891L22.8472 12.3413L25.36 10.6225C26.0841 10.1272 27.0522 10.1872 27.7096 10.7681L23.6143 13.8624L21.0734 15.7822C20.1521 16.4783 18.882 16.4834 17.9551 15.7948L13.9545 12.8223L13.3408 12.3589C12.9643 12.0746 12.4345 12.1173 12.1083 12.4583L17.9452 16.8615C18.8758 17.5635 20.1598 17.5605 21.087 16.854L29.3478 10.5601L30.1906 11.5516C31.1806 12.7164 31.0109 14.4693 29.8158 15.4225L23.8414 19.9755C23.1983 20.4656 22.8198 21.227 22.8173 22.0356L22.8004 27.5136C22.7975 28.4335 22.051 29.1777 21.1311 29.1777L21.1545 20.786C21.1562 20.2077 21.4262 19.663 21.8854 19.3117L28.6993 14.0985C29.0578 13.8242 29.1268 13.3117 28.8537 12.9523L21.3694 18.6514C20.7273 19.1404 20.3486 19.8998 20.3445 20.7068L20.299 29.5677V30.3738H19.467C17.6318 30.3738 16.147 28.8807 16.1572 27.0456L16.1647 25.6934L16.1846 21.9117C16.1884 21.182 15.8494 20.493 15.269 20.0508L9.32435 15.5215C8.59806 14.9681 8.46969 13.9254 9.04009 13.2124Z" fill="white"/>
<defs>
<linearGradient id="paint0_linear_10_48" x1="24.5008" y1="-5.65444" x2="24.9967" y2="38.4237" gradientUnits="userSpaceOnUse">
<stop stop-color="#75E3A6"/>
<stop offset="1" stop-color="#0278FE"/>
</linearGradient>
</defs>
</svg>
