<?xml version="1.0" encoding="utf-8"?>
<!-- Uploaded to: SVG Repo, www.svgrepo.com, Generator: SVG Repo Mixer Tools -->
<svg fill="#000000" width="800px" height="800px" viewBox="0 0 32 32" version="1.1" xmlns="http://www.w3.org/2000/svg">
<title>link-vertical</title>
<path d="M18.467 22.811c-0.414 0-0.75 0.336-0.75 0.75v0c0 2.743-2.224 4.967-4.967 4.967s-4.967-2.224-4.967-4.967v0-6.352c0-2.743 2.224-4.967 4.967-4.967s4.967 2.224 4.967 4.967v0c0 0.414 0.336 0.75 0.75 0.75s0.75-0.336 0.75-0.75v0c0-3.572-2.895-6.467-6.467-6.467s-6.467 2.895-6.467 6.467v0 6.352c0 3.572 2.895 6.467 6.467 6.467s6.467-2.895 6.467-6.467v0c-0-0.414-0.336-0.75-0.75-0.75v0zM19.252 2.175c-3.568 0.003-6.46 2.894-6.464 6.461v0c0 0.414 0.336 0.75 0.75 0.75s0.75-0.336 0.75-0.75v0c0.006-2.736 2.225-4.952 4.962-4.952s4.957 2.216 4.962 4.952v6.348c0 0.003 0 0.006 0 0.010 0 2.741-2.222 4.962-4.962 4.962s-4.962-2.222-4.962-4.962c0-0.004 0-0.007 0-0.011v0.001c0-0.414-0.336-0.75-0.75-0.75s-0.75 0.336-0.75 0.75v0c0 0.003 0 0.007 0 0.011 0 3.569 2.893 6.462 6.462 6.462s6.462-2.893 6.462-6.462c0-0.004 0-0.008 0-0.012v0.001-6.348c-0.004-3.567-2.894-6.458-6.46-6.462h-0z"></path>
</svg>